<?xml version="1.0" encoding="utf-8" standalone="no"?>
<!DOCTYPE svg PUBLIC "-//W3C//DTD SVG 1.1//EN"
  "http://www.w3.org/Graphics/SVG/1.1/DTD/svg11.dtd">
<!-- Created with matplotlib (http://matplotlib.org/) -->
<svg height="432pt" version="1.1" viewBox="0 0 576 432" width="576pt" xmlns="http://www.w3.org/2000/svg" xmlns:xlink="http://www.w3.org/1999/xlink">
 <defs>
  <style type="text/css">
*{stroke-linecap:butt;stroke-linejoin:round;stroke-miterlimit:100000;}
  </style>
 </defs>
 <g id="figure_1">
  <g id="patch_1">
   <path d="M 0 432 
L 576 432 
L 576 0 
L 0 0 
z
" style="fill:#ffffff;"/>
  </g>
  <g id="axes_1">
   <g id="patch_2">
    <path d="M 72 388.8 
L 518.4 388.8 
L 518.4 43.2 
L 72 43.2 
z
" style="fill:#ffffff;"/>
   </g>
   <g id="line2d_1">
    <path clip-path="url(#pf749ce77d8)" d="M 69.612834 193.358263 
L 72 302.232137 
L 72 95.128869 
L 72 195.017143 
L 74.387166 314.594743 
L 74.387166 96.382903 
L 74.387166 191.225417 
L 76.774332 295.97184 
L 76.774332 91.001417 
L 76.774332 190.21824 
L 79.161497 328.547109 
L 79.161497 91.623497 
L 79.161497 188.885211 
L 81.548663 314.456503 
L 81.548663 93.914331 
L 81.548663 188.737097 
L 83.935829 309.351497 
L 83.935829 93.86496 
L 83.935829 195.027017 
L 86.322995 314.101029 
L 86.322995 102.425966 
L 86.322995 195.6096 
L 88.71016 315.177326 
L 88.71016 106.918766 
L 88.71016 188.352 
L 91.097326 309.292251 
L 91.097326 98.377509 
L 91.097326 196.666149 
L 93.484492 330.18624 
L 93.484492 94.635154 
L 93.484492 189.398674 
L 95.871658 301.619931 
L 95.871658 107.708709 
L 95.871658 196.932754 
L 98.258824 315.345189 
L 98.258824 103.383771 
L 98.258824 187.93728 
L 100.645989 310.783269 
L 100.645989 96.126171 
L 100.645989 198.670629 
L 103.033155 340.880091 
L 103.033155 92.314697 
L 103.033155 190.050377 
L 105.420321 310.536411 
L 105.420321 87.604663 
L 105.420321 191.985737 
L 107.807487 307.248274 
L 107.807487 96.758126 
L 107.807487 200.230766 
L 110.194652 326.759863 
L 110.194652 91.228526 
L 110.194652 188.598857 
L 112.581818 314.940343 
L 112.581818 94.891886 
L 112.581818 192.992914 
L 114.968984 302.26176 
L 114.968984 94.664777 
L 114.968984 190.139246 
L 117.35615 310.961006 
L 117.35615 96.471771 
L 117.35615 189.813394 
L 119.743316 306.260846 
L 119.743316 304.493349 
L 119.743316 93.10464 
L 119.743316 196.774766 
L 122.130481 298.539154 
L 122.130481 86.95296 
L 122.130481 193.012663 
L 124.517647 309.884709 
L 124.517647 93.746469 
L 124.517647 189.80352 
L 126.904813 331.025554 
L 126.904813 96.333531 
L 126.904813 188.470491 
L 129.291979 311.434971 
L 129.291979 92.956526 
L 129.291979 185.705691 
L 131.679144 327.372069 
L 131.679144 89.559771 
L 131.679144 195.54048 
L 134.06631 310.368549 
L 134.06631 90.744686 
L 134.06631 184.876251 
L 136.453476 310.07232 
L 136.453476 96.086674 
L 136.453476 186.317897 
L 138.840642 316.391863 
L 138.840642 89.5104 
L 138.840642 189.25056 
L 141.227807 322.138697 
L 141.227807 89.628891 
L 141.227807 176.917577 
L 143.614973 306.537326 
L 143.614973 92.660297 
L 143.614973 190.613211 
L 146.002139 310.496914 
L 146.002139 97.034606 
L 146.002139 194.404937 
L 148.389305 319.235657 
L 148.389305 95.86944 
L 148.389305 193.12128 
L 150.776471 308.838034 
L 150.776471 95.7312 
L 150.776471 186.080914 
L 153.163636 312.83712 
L 153.163636 95.049874 
L 153.163636 188.203886 
L 155.550802 317.389166 
L 155.550802 89.974491 
L 155.550802 187.236206 
L 157.937968 333.069531 
L 157.937968 91.44576 
L 157.937968 191.235291 
L 160.325134 329.949257 
L 160.325134 95.829943 
L 160.325134 193.269394 
L 162.712299 302.577737 
L 162.712299 94.76352 
L 162.712299 193.101531 
L 165.099465 319.95648 
L 165.099465 93.460114 
L 165.099465 189.724526 
L 167.486631 304.493349 
L 167.486631 301.560686 
L 167.486631 92.186331 
L 167.486631 186.229029 
L 169.873797 306.576823 
L 169.873797 94.111817 
L 169.873797 191.975863 
L 172.260963 311.17824 
L 172.260963 92.808411 
L 172.260963 183.681463 
L 174.648128 318.692571 
L 174.648128 91.258149 
L 174.648128 183.138377 
L 177.035294 313.656686 
L 177.035294 89.540023 
L 177.035294 186.979474 
L 179.42246 315.552549 
L 179.42246 93.45024 
L 179.42246 188.875337 
L 181.809626 322.405303 
L 181.809626 89.480777 
L 181.809626 185.10336 
L 184.196791 321.003154 
L 184.196791 88.977189 
L 184.196791 184.017189 
L 186.583957 317.517531 
L 186.583957 90.5472 
L 186.583957 184.017189 
L 188.971123 309.499611 
L 188.971123 89.135177 
L 188.971123 183.799954 
L 191.358289 322.662034 
L 191.358289 93.390994 
L 191.358289 190.178743 
L 193.745455 317.250926 
L 193.745455 92.640549 
L 193.745455 186.851109 
L 196.13262 314.940343 
L 196.13262 87.57504 
L 196.13262 184.807131 
L 198.519786 318.109989 
L 198.519786 86.478994 
L 198.519786 183.168 
L 200.906952 313.301211 
L 200.906952 95.375726 
L 200.906952 182.861897 
L 203.294118 318.386469 
L 203.294118 91.37664 
L 203.294118 188.312503 
L 205.681283 311.7312 
L 205.681283 90.122606 
L 205.681283 187.739794 
L 208.068449 306.260846 
L 208.068449 91.396389 
L 208.068449 192.509074 
L 210.455615 322.7904 
L 210.455615 94.457417 
L 210.455615 186.456137 
L 212.842781 315.11808 
L 212.842781 97.745554 
L 212.842781 189.902263 
L 215.229947 328.497737 
L 215.229947 95.286857 
L 215.229947 189.744274 
L 217.617112 324.548023 
L 217.617112 94.269806 
L 217.617112 189.951634 
L 220.004278 331.667383 
L 220.004278 98.002286 
L 220.004278 189.072823 
L 222.391444 320.005851 
L 222.391444 93.894583 
L 222.391444 184.767634 
L 224.77861 321.694354 
L 224.77861 92.581303 
L 224.77861 189.280183 
L 227.165775 320.588434 
L 227.165775 94.635154 
L 227.165775 182.733531 
L 229.552941 318.85056 
L 229.552941 92.55168 
L 229.552941 188.55936 
L 231.940107 318.218606 
L 231.940107 93.756343 
L 231.940107 181.686857 
L 234.327273 334.965394 
L 234.327273 93.005897 
L 234.327273 183.395109 
L 236.714439 321.180891 
L 236.714439 92.907154 
L 236.714439 184.175177 
L 239.101604 324.824503 
L 239.101604 94.733897 
L 239.101604 185.024366 
L 241.48877 314.505874 
L 241.48877 92.265326 
L 241.48877 181.588114 
L 243.875936 318.593829 
L 243.875936 89.747383 
L 243.875936 183.385234 
L 246.263102 308.008594 
L 246.263102 90.96192 
L 246.263102 187.601554 
L 248.650267 310.812891 
L 248.650267 90.250971 
L 248.650267 179.978606 
L 251.037433 325.14048 
L 251.037433 89.777006 
L 251.037433 178.645577 
L 253.424599 316.263497 
L 253.424599 89.520274 
L 253.424599 186.495634 
L 255.811765 310.269806 
L 255.811765 91.2384 
L 255.811765 188.677851 
L 258.19893 312.027429 
L 258.19893 94.467291 
L 258.19893 187.858286 
L 260.586096 319.778743 
L 260.586096 92.986149 
L 260.586096 186.090789 
L 262.973262 313.370331 
L 262.973262 92.215954 
L 262.973262 184.905874 
L 265.360428 318.050743 
L 265.360428 90.527451 
L 265.360428 181.99296 
L 267.747594 319.186286 
L 267.747594 93.93408 
L 267.747594 182.042331 
L 270.134759 314.969966 
L 270.134759 93.558857 
L 270.134759 186.426514 
L 272.521925 325.012114 
L 272.521925 90.389211 
L 272.521925 183.019886 
L 274.909091 312.511269 
L 274.909091 91.574126 
L 274.909091 184.185051 
L 277.296257 321.101897 
L 277.296257 92.462811 
L 277.296257 182.427429 
L 279.683422 314.614491 
L 279.683422 98.63424 
L 279.683422 194.78016 
L 282.070588 316.401737 
L 282.070588 90.843429 
L 282.070588 185.636571 
L 284.457754 300.731246 
L 284.457754 91.297646 
L 284.457754 182.111451 
L 286.84492 314.338011 
L 286.84492 91.090286 
L 286.84492 187.216457 
L 289.232086 310.3488 
L 289.232086 92.245577 
L 289.232086 185.429211 
L 291.619251 314.70336 
L 291.619251 92.383817 
L 291.619251 190.415726 
L 294.006417 316.411611 
L 294.006417 93.38112 
L 294.006417 180.284709 
L 296.393583 316.609097 
L 296.393583 88.295863 
L 296.393583 181.291886 
L 298.780749 307.465509 
L 298.780749 90.191726 
L 298.780749 185.389714 
L 301.167914 304.19712 
L 301.167914 91.613623 
L 301.167914 181.815223 
L 303.55508 316.15488 
L 303.55508 91.919726 
L 303.55508 184.68864 
L 305.942246 311.010377 
L 305.942246 90.8928 
L 305.942246 178.60608 
L 308.329412 313.854171 
L 308.329412 90.06336 
L 308.329412 182.299063 
L 310.716578 312.333531 
L 310.716578 90.023863 
L 310.716578 182.763154 
L 313.103743 300.168411 
L 313.103743 89.1648 
L 313.103743 179.445394 
L 315.490909 314.436754 
L 315.490909 90.399086 
L 315.490909 175.49568 
L 317.878075 304.996937 
L 317.878075 90.942171 
L 317.878075 180.67968 
L 320.265241 318.386469 
L 320.265241 90.527451 
L 320.265241 180.808046 
L 322.652406 313.538194 
L 322.652406 87.347931 
L 322.652406 182.210194 
L 325.039572 309.361371 
L 325.039572 85.669303 
L 325.039572 173.42208 
L 327.426738 298.746514 
L 327.426738 89.214171 
L 327.426738 177.70752 
L 329.813904 316.233874 
L 329.813904 89.125303 
L 329.813904 182.921143 
L 332.20107 311.563337 
L 332.20107 90.211474 
L 332.20107 178.635703 
L 334.588235 315.611794 
L 334.588235 88.503223 
L 334.588235 179.3664 
L 336.975401 315.04896 
L 336.975401 89.1648 
L 336.975401 180.620434 
L 339.362567 311.908937 
L 339.362567 87.486171 
L 339.362567 175.959771 
L 341.749733 305.668389 
L 341.749733 86.459246 
L 341.749733 176.196754 
L 344.136898 306.882926 
L 344.136898 87.446674 
L 344.136898 182.358309 
L 346.524064 314.110903 
L 346.524064 89.64864 
L 346.524064 179.771246 
L 348.91123 308.077714 
L 348.91123 87.318309 
L 348.91123 177.529783 
L 351.298396 305.599269 
L 351.298396 91.060663 
L 351.298396 176.374491 
L 353.685561 313.429577 
L 353.685561 87.407177 
L 353.685561 175.110583 
L 356.072727 298.568777 
L 356.072727 88.522971 
L 356.072727 176.492983 
L 358.459893 311.583086 
L 358.459893 85.817417 
L 358.459893 177.816137 
L 360.847059 305.401783 
L 360.847059 89.135177 
L 360.847059 181.193143 
L 363.234225 312.432274 
L 363.234225 89.174674 
L 363.234225 171.437349 
L 365.62139 300.089417 
L 365.62139 88.325486 
L 365.62139 178.211109 
L 368.008556 303.081326 
L 368.008556 88.799451 
L 368.008556 178.151863 
L 370.395722 318.534583 
L 370.395722 93.440366 
L 370.395722 181.548617 
L 372.782888 316.105509 
L 372.782888 86.577737 
L 372.782888 178.062994 
L 375.170053 306.833554 
L 375.170053 88.19712 
L 375.170053 183.730834 
L 377.557219 305.767131 
L 377.557219 86.992457 
L 377.557219 177.579154 
L 379.944385 318.050743 
L 379.944385 87.910766 
L 379.944385 178.378971 
L 382.331551 300.099291 
L 382.331551 87.496046 
L 382.331551 176.512731 
L 384.718717 312.254537 
L 384.718717 92.976274 
L 384.718717 185.192229 
L 387.105882 313.360457 
L 387.105882 88.710583 
L 387.105882 182.417554 
L 389.493048 299.447589 
L 389.493048 88.88832 
L 389.493048 181.291886 
L 391.880214 305.64864 
L 391.880214 88.690834 
L 391.880214 183.819703 
L 394.26738 309.183634 
L 394.26738 88.463726 
L 394.26738 180.81792 
L 396.654545 306.981669 
L 396.654545 89.836251 
L 396.654545 184.817006 
L 399.041711 303.900891 
L 399.041711 89.342537 
L 399.041711 178.023497 
L 401.428877 306.300343 
L 401.428877 87.634286 
L 401.428877 172.948114 
L 403.816043 308.670171 
L 403.816043 91.820983 
L 403.816043 185.093486 
L 406.203209 307.702491 
L 406.203209 92.699794 
L 406.203209 179.85024 
L 408.590374 312.768 
L 408.590374 86.577737 
L 408.590374 182.308937 
L 410.97754 312.827246 
L 410.97754 90.191726 
L 410.97754 175.35744 
L 413.364706 314.960091 
L 413.364706 92.117211 
L 413.364706 182.032457 
L 415.751872 323.442103 
L 415.751872 89.707886 
L 415.751872 181.973211 
L 418.139037 309.845211 
L 418.139037 89.678263 
L 418.139037 184.422034 
L 420.526203 308.06784 
L 420.526203 90.596571 
L 420.526203 180.837669 
L 422.913369 321.68448 
L 422.913369 89.78688 
L 422.913369 182.150949 
L 425.300535 308.06784 
L 425.300535 87.634286 
L 425.300535 180.353829 
L 427.687701 316.470857 
L 427.687701 90.250971 
L 427.687701 185.271223 
L 430.074866 304.661211 
L 430.074866 90.073234 
L 430.074866 181.114149 
L 432.462032 305.362286 
L 432.462032 91.811109 
L 432.462032 191.1168 
L 434.849198 316.243749 
L 434.849198 89.964617 
L 434.849198 183.691337 
L 437.236364 308.304823 
L 437.236364 92.452937 
L 437.236364 181.16352 
L 439.623529 311.770697 
L 439.623529 89.964617 
L 439.623529 178.201234 
L 442.010695 308.285074 
L 442.010695 88.256366 
L 442.010695 178.764069 
L 444.397861 294.253714 
L 444.397861 85.511314 
L 444.397861 179.168914 
L 446.785027 312.886491 
L 446.785027 90.112731 
L 446.785027 182.26944 
L 449.172193 301.659429 
L 449.172193 84.158537 
L 449.172193 179.129417 
L 451.559358 306.389211 
L 451.559358 87.614537 
L 451.559358 181.588114 
L 453.946524 307.781486 
L 453.946524 88.394606 
L 453.946524 181.045029 
L 456.33369 301.145966 
L 456.33369 88.641463 
L 456.33369 181.074651 
L 458.720856 305.99424 
L 458.720856 86.222263 
L 458.720856 180.729051 
L 461.108021 302.311131 
L 461.108021 85.531063 
L 461.108021 176.966949 
L 463.495187 308.196206 
L 463.495187 86.794971 
L 463.495187 177.095314 
L 465.882353 304.236617 
L 465.882353 85.313829 
L 465.882353 176.413989 
L 468.269519 302.943086 
L 468.269519 85.669303 
L 468.269519 177.302674 
L 470.656684 299.003246 
L 470.656684 91.366766 
L 470.656684 183.543223 
L 473.04385 302.370377 
L 473.04385 88.621714 
L 473.04385 179.751497 
L 475.431016 305.865874 
L 475.431016 86.26176 
L 475.431016 174.172526 
L 477.818182 297.63072 
L 477.818182 81.808457 
L 477.818182 172.721006 
L 480.205348 307.850606 
L 480.205348 88.463726 
L 480.205348 181.71648 
L 482.592513 303.140571 
L 482.592513 83.9808 
L 482.592513 173.293714 
L 484.979679 303.002331 
L 484.979679 79.251017 
L 484.979679 174.291017 
L 487.366845 299.733943 
L 487.366845 84.662126 
L 487.366845 174.883474 
L 489.754011 303.979886 
L 489.754011 82.835383 
L 489.754011 180.284709 
L 492.141176 301.787794 
L 492.141176 80.475429 
L 492.141176 173.994789 
L 494.528342 293.374903 
L 494.528342 82.578651 
L 494.528342 177.529783 
L 496.915508 295.41888 
L 496.915508 79.063406 
L 496.915508 168.060343 
L 499.302674 300.444891 
L 499.302674 85.659429 
L 499.302674 174.103406 
L 501.68984 298.371291 
L 501.68984 83.01312 
L 501.68984 168.642926 
L 504.077005 303.634286 
L 504.077005 81.127131 
L 504.077005 170.677029 
L 506.464171 285.781577 
L 506.464171 79.69536 
L 506.464171 170.469669 
L 508.851337 308.640549 
L 508.851337 82.331794 
L 508.851337 169.719223 
L 511.238503 297.887451 
L 511.238503 82.707017 
L 511.238503 173.264091 
L 513.625668 299.22048 
L 513.625668 77.69088 
L 513.625668 168.751543 
L 516.012834 303.614537 
L 516.012834 79.912594 
L 516.012834 169.245257 
L 518.4 303.426926 
L 518.4 80.159451 
L 518.4 172.098926 
" style="fill:none;stroke:#0000ff;stroke-linecap:square;"/>
   </g>
   <g id="patch_3">
    <path d="M 72 388.8 
L 518.4 388.8 
" style="fill:none;stroke:#000000;stroke-linecap:square;stroke-linejoin:miter;"/>
   </g>
   <g id="patch_4">
    <path d="M 72 43.2 
L 518.4 43.2 
" style="fill:none;stroke:#000000;stroke-linecap:square;stroke-linejoin:miter;"/>
   </g>
   <g id="patch_5">
    <path d="M 72 388.8 
L 72 43.2 
" style="fill:none;stroke:#000000;stroke-linecap:square;stroke-linejoin:miter;"/>
   </g>
   <g id="patch_6">
    <path d="M 518.4 388.8 
L 518.4 43.2 
" style="fill:none;stroke:#000000;stroke-linecap:square;stroke-linejoin:miter;"/>
   </g>
   <g id="matplotlib.axis_1">
    <g id="xtick_1">
     <g id="line2d_2">
      <defs>
       <path d="M 0 0 
L 0 -4 
" id="mba35a134a9" style="stroke:#000000;stroke-width:0.5;"/>
      </defs>
      <g>
       <use style="stroke:#000000;stroke-width:0.5;" x="131.679144385" xlink:href="#mba35a134a9" y="388.8"/>
      </g>
     </g>
     <g id="line2d_3">
      <defs>
       <path d="M 0 0 
L 0 4 
" id="m54547b1e0b" style="stroke:#000000;stroke-width:0.5;"/>
      </defs>
      <g>
       <use style="stroke:#000000;stroke-width:0.5;" x="131.679144385" xlink:href="#m54547b1e0b" y="43.2"/>
      </g>
     </g>
     <g id="text_1">
      <!-- 1850 -->
      <defs>
       <path d="M 31.78125 66.40625 
Q 24.171875 66.40625 20.328125 58.90625 
Q 16.5 51.421875 16.5 36.375 
Q 16.5 21.390625 20.328125 13.890625 
Q 24.171875 6.390625 31.78125 6.390625 
Q 39.453125 6.390625 43.28125 13.890625 
Q 47.125 21.390625 47.125 36.375 
Q 47.125 51.421875 43.28125 58.90625 
Q 39.453125 66.40625 31.78125 66.40625 
M 31.78125 74.21875 
Q 44.046875 74.21875 50.515625 64.515625 
Q 56.984375 54.828125 56.984375 36.375 
Q 56.984375 17.96875 50.515625 8.265625 
Q 44.046875 -1.421875 31.78125 -1.421875 
Q 19.53125 -1.421875 13.0625 8.265625 
Q 6.59375 17.96875 6.59375 36.375 
Q 6.59375 54.828125 13.0625 64.515625 
Q 19.53125 74.21875 31.78125 74.21875 
" id="BitstreamVeraSans-Roman-30"/>
       <path d="M 31.78125 34.625 
Q 24.75 34.625 20.71875 30.859375 
Q 16.703125 27.09375 16.703125 20.515625 
Q 16.703125 13.921875 20.71875 10.15625 
Q 24.75 6.390625 31.78125 6.390625 
Q 38.8125 6.390625 42.859375 10.171875 
Q 46.921875 13.96875 46.921875 20.515625 
Q 46.921875 27.09375 42.890625 30.859375 
Q 38.875 34.625 31.78125 34.625 
M 21.921875 38.8125 
Q 15.578125 40.375 12.03125 44.71875 
Q 8.5 49.078125 8.5 55.328125 
Q 8.5 64.0625 14.71875 69.140625 
Q 20.953125 74.21875 31.78125 74.21875 
Q 42.671875 74.21875 48.875 69.140625 
Q 55.078125 64.0625 55.078125 55.328125 
Q 55.078125 49.078125 51.53125 44.71875 
Q 48 40.375 41.703125 38.8125 
Q 48.828125 37.15625 52.796875 32.3125 
Q 56.78125 27.484375 56.78125 20.515625 
Q 56.78125 9.90625 50.3125 4.234375 
Q 43.84375 -1.421875 31.78125 -1.421875 
Q 19.734375 -1.421875 13.25 4.234375 
Q 6.78125 9.90625 6.78125 20.515625 
Q 6.78125 27.484375 10.78125 32.3125 
Q 14.796875 37.15625 21.921875 38.8125 
M 18.3125 54.390625 
Q 18.3125 48.734375 21.84375 45.5625 
Q 25.390625 42.390625 31.78125 42.390625 
Q 38.140625 42.390625 41.71875 45.5625 
Q 45.3125 48.734375 45.3125 54.390625 
Q 45.3125 60.0625 41.71875 63.234375 
Q 38.140625 66.40625 31.78125 66.40625 
Q 25.390625 66.40625 21.84375 63.234375 
Q 18.3125 60.0625 18.3125 54.390625 
" id="BitstreamVeraSans-Roman-38"/>
       <path d="M 12.40625 8.296875 
L 28.515625 8.296875 
L 28.515625 63.921875 
L 10.984375 60.40625 
L 10.984375 69.390625 
L 28.421875 72.90625 
L 38.28125 72.90625 
L 38.28125 8.296875 
L 54.390625 8.296875 
L 54.390625 0 
L 12.40625 0 
z
" id="BitstreamVeraSans-Roman-31"/>
       <path d="M 10.796875 72.90625 
L 49.515625 72.90625 
L 49.515625 64.59375 
L 19.828125 64.59375 
L 19.828125 46.734375 
Q 21.96875 47.46875 24.109375 47.828125 
Q 26.265625 48.1875 28.421875 48.1875 
Q 40.625 48.1875 47.75 41.5 
Q 54.890625 34.8125 54.890625 23.390625 
Q 54.890625 11.625 47.5625 5.09375 
Q 40.234375 -1.421875 26.90625 -1.421875 
Q 22.3125 -1.421875 17.546875 -0.640625 
Q 12.796875 0.140625 7.71875 1.703125 
L 7.71875 11.625 
Q 12.109375 9.234375 16.796875 8.0625 
Q 21.484375 6.890625 26.703125 6.890625 
Q 35.15625 6.890625 40.078125 11.328125 
Q 45.015625 15.765625 45.015625 23.390625 
Q 45.015625 31 40.078125 35.4375 
Q 35.15625 39.890625 26.703125 39.890625 
Q 22.75 39.890625 18.8125 39.015625 
Q 14.890625 38.140625 10.796875 36.28125 
z
" id="BitstreamVeraSans-Roman-35"/>
      </defs>
      <g transform="translate(116.409144385 401.918125)scale(0.12 -0.12)">
       <use xlink:href="#BitstreamVeraSans-Roman-31"/>
       <use x="63.623046875" xlink:href="#BitstreamVeraSans-Roman-38"/>
       <use x="127.24609375" xlink:href="#BitstreamVeraSans-Roman-35"/>
       <use x="190.869140625" xlink:href="#BitstreamVeraSans-Roman-30"/>
      </g>
     </g>
    </g>
    <g id="xtick_2">
     <g id="line2d_4">
      <g>
       <use style="stroke:#000000;stroke-width:0.5;" x="251.037433155" xlink:href="#mba35a134a9" y="388.8"/>
      </g>
     </g>
     <g id="line2d_5">
      <g>
       <use style="stroke:#000000;stroke-width:0.5;" x="251.037433155" xlink:href="#m54547b1e0b" y="43.2"/>
      </g>
     </g>
     <g id="text_2">
      <!-- 1900 -->
      <defs>
       <path d="M 10.984375 1.515625 
L 10.984375 10.5 
Q 14.703125 8.734375 18.5 7.8125 
Q 22.3125 6.890625 25.984375 6.890625 
Q 35.75 6.890625 40.890625 13.453125 
Q 46.046875 20.015625 46.78125 33.40625 
Q 43.953125 29.203125 39.59375 26.953125 
Q 35.25 24.703125 29.984375 24.703125 
Q 19.046875 24.703125 12.671875 31.3125 
Q 6.296875 37.9375 6.296875 49.421875 
Q 6.296875 60.640625 12.9375 67.421875 
Q 19.578125 74.21875 30.609375 74.21875 
Q 43.265625 74.21875 49.921875 64.515625 
Q 56.59375 54.828125 56.59375 36.375 
Q 56.59375 19.140625 48.40625 8.859375 
Q 40.234375 -1.421875 26.421875 -1.421875 
Q 22.703125 -1.421875 18.890625 -0.6875 
Q 15.09375 0.046875 10.984375 1.515625 
M 30.609375 32.421875 
Q 37.25 32.421875 41.125 36.953125 
Q 45.015625 41.5 45.015625 49.421875 
Q 45.015625 57.28125 41.125 61.84375 
Q 37.25 66.40625 30.609375 66.40625 
Q 23.96875 66.40625 20.09375 61.84375 
Q 16.21875 57.28125 16.21875 49.421875 
Q 16.21875 41.5 20.09375 36.953125 
Q 23.96875 32.421875 30.609375 32.421875 
" id="BitstreamVeraSans-Roman-39"/>
      </defs>
      <g transform="translate(235.767433155 401.918125)scale(0.12 -0.12)">
       <use xlink:href="#BitstreamVeraSans-Roman-31"/>
       <use x="63.623046875" xlink:href="#BitstreamVeraSans-Roman-39"/>
       <use x="127.24609375" xlink:href="#BitstreamVeraSans-Roman-30"/>
       <use x="190.869140625" xlink:href="#BitstreamVeraSans-Roman-30"/>
      </g>
     </g>
    </g>
    <g id="xtick_3">
     <g id="line2d_6">
      <g>
       <use style="stroke:#000000;stroke-width:0.5;" x="370.395721925" xlink:href="#mba35a134a9" y="388.8"/>
      </g>
     </g>
     <g id="line2d_7">
      <g>
       <use style="stroke:#000000;stroke-width:0.5;" x="370.395721925" xlink:href="#m54547b1e0b" y="43.2"/>
      </g>
     </g>
     <g id="text_3">
      <!-- 1950 -->
      <g transform="translate(355.125721925 401.918125)scale(0.12 -0.12)">
       <use xlink:href="#BitstreamVeraSans-Roman-31"/>
       <use x="63.623046875" xlink:href="#BitstreamVeraSans-Roman-39"/>
       <use x="127.24609375" xlink:href="#BitstreamVeraSans-Roman-35"/>
       <use x="190.869140625" xlink:href="#BitstreamVeraSans-Roman-30"/>
      </g>
     </g>
    </g>
    <g id="xtick_4">
     <g id="line2d_8">
      <g>
       <use style="stroke:#000000;stroke-width:0.5;" x="489.754010695" xlink:href="#mba35a134a9" y="388.8"/>
      </g>
     </g>
     <g id="line2d_9">
      <g>
       <use style="stroke:#000000;stroke-width:0.5;" x="489.754010695" xlink:href="#m54547b1e0b" y="43.2"/>
      </g>
     </g>
     <g id="text_4">
      <!-- 2000 -->
      <defs>
       <path d="M 19.1875 8.296875 
L 53.609375 8.296875 
L 53.609375 0 
L 7.328125 0 
L 7.328125 8.296875 
Q 12.9375 14.109375 22.625 23.890625 
Q 32.328125 33.6875 34.8125 36.53125 
Q 39.546875 41.84375 41.421875 45.53125 
Q 43.3125 49.21875 43.3125 52.78125 
Q 43.3125 58.59375 39.234375 62.25 
Q 35.15625 65.921875 28.609375 65.921875 
Q 23.96875 65.921875 18.8125 64.3125 
Q 13.671875 62.703125 7.8125 59.421875 
L 7.8125 69.390625 
Q 13.765625 71.78125 18.9375 73 
Q 24.125 74.21875 28.421875 74.21875 
Q 39.75 74.21875 46.484375 68.546875 
Q 53.21875 62.890625 53.21875 53.421875 
Q 53.21875 48.921875 51.53125 44.890625 
Q 49.859375 40.875 45.40625 35.40625 
Q 44.1875 33.984375 37.640625 27.21875 
Q 31.109375 20.453125 19.1875 8.296875 
" id="BitstreamVeraSans-Roman-32"/>
      </defs>
      <g transform="translate(474.484010695 401.918125)scale(0.12 -0.12)">
       <use xlink:href="#BitstreamVeraSans-Roman-32"/>
       <use x="63.623046875" xlink:href="#BitstreamVeraSans-Roman-30"/>
       <use x="127.24609375" xlink:href="#BitstreamVeraSans-Roman-30"/>
       <use x="190.869140625" xlink:href="#BitstreamVeraSans-Roman-30"/>
      </g>
     </g>
    </g>
    <g id="text_5">
     <!-- Year -->
     <defs>
      <path d="M 56.203125 29.59375 
L 56.203125 25.203125 
L 14.890625 25.203125 
Q 15.484375 15.921875 20.484375 11.0625 
Q 25.484375 6.203125 34.421875 6.203125 
Q 39.59375 6.203125 44.453125 7.46875 
Q 49.3125 8.734375 54.109375 11.28125 
L 54.109375 2.78125 
Q 49.265625 0.734375 44.1875 -0.34375 
Q 39.109375 -1.421875 33.890625 -1.421875 
Q 20.796875 -1.421875 13.15625 6.1875 
Q 5.515625 13.8125 5.515625 26.8125 
Q 5.515625 40.234375 12.765625 48.109375 
Q 20.015625 56 32.328125 56 
Q 43.359375 56 49.78125 48.890625 
Q 56.203125 41.796875 56.203125 29.59375 
M 47.21875 32.234375 
Q 47.125 39.59375 43.09375 43.984375 
Q 39.0625 48.390625 32.421875 48.390625 
Q 24.90625 48.390625 20.390625 44.140625 
Q 15.875 39.890625 15.1875 32.171875 
z
" id="BitstreamVeraSans-Roman-65"/>
      <path d="M 41.109375 46.296875 
Q 39.59375 47.171875 37.8125 47.578125 
Q 36.03125 48 33.890625 48 
Q 26.265625 48 22.1875 43.046875 
Q 18.109375 38.09375 18.109375 28.8125 
L 18.109375 0 
L 9.078125 0 
L 9.078125 54.6875 
L 18.109375 54.6875 
L 18.109375 46.1875 
Q 20.953125 51.171875 25.484375 53.578125 
Q 30.03125 56 36.53125 56 
Q 37.453125 56 38.578125 55.875 
Q 39.703125 55.765625 41.0625 55.515625 
z
" id="BitstreamVeraSans-Roman-72"/>
      <path d="M 34.28125 27.484375 
Q 23.390625 27.484375 19.1875 25 
Q 14.984375 22.515625 14.984375 16.5 
Q 14.984375 11.71875 18.140625 8.90625 
Q 21.296875 6.109375 26.703125 6.109375 
Q 34.1875 6.109375 38.703125 11.40625 
Q 43.21875 16.703125 43.21875 25.484375 
L 43.21875 27.484375 
z
M 52.203125 31.203125 
L 52.203125 0 
L 43.21875 0 
L 43.21875 8.296875 
Q 40.140625 3.328125 35.546875 0.953125 
Q 30.953125 -1.421875 24.3125 -1.421875 
Q 15.921875 -1.421875 10.953125 3.296875 
Q 6 8.015625 6 15.921875 
Q 6 25.140625 12.171875 29.828125 
Q 18.359375 34.515625 30.609375 34.515625 
L 43.21875 34.515625 
L 43.21875 35.40625 
Q 43.21875 41.609375 39.140625 45 
Q 35.0625 48.390625 27.6875 48.390625 
Q 23 48.390625 18.546875 47.265625 
Q 14.109375 46.140625 10.015625 43.890625 
L 10.015625 52.203125 
Q 14.9375 54.109375 19.578125 55.046875 
Q 24.21875 56 28.609375 56 
Q 40.484375 56 46.34375 49.84375 
Q 52.203125 43.703125 52.203125 31.203125 
" id="BitstreamVeraSans-Roman-61"/>
      <path d="M -0.203125 72.90625 
L 10.40625 72.90625 
L 30.609375 42.921875 
L 50.6875 72.90625 
L 61.28125 72.90625 
L 35.5 34.71875 
L 35.5 0 
L 25.59375 0 
L 25.59375 34.71875 
z
" id="BitstreamVeraSans-Roman-59"/>
     </defs>
     <g transform="translate(281.7121875 418.531875)scale(0.12 -0.12)">
      <use xlink:href="#BitstreamVeraSans-Roman-59"/>
      <use x="60.880859375" xlink:href="#BitstreamVeraSans-Roman-65"/>
      <use x="122.404296875" xlink:href="#BitstreamVeraSans-Roman-61"/>
      <use x="183.68359375" xlink:href="#BitstreamVeraSans-Roman-72"/>
     </g>
    </g>
   </g>
   <g id="matplotlib.axis_2">
    <g id="ytick_1">
     <g id="line2d_10">
      <defs>
       <path d="M 0 0 
L 4 0 
" id="mdd6c5360b4" style="stroke:#000000;stroke-width:0.5;"/>
      </defs>
      <g>
       <use style="stroke:#000000;stroke-width:0.5;" x="72.0" xlink:href="#mdd6c5360b4" y="388.8"/>
      </g>
     </g>
     <g id="line2d_11">
      <defs>
       <path d="M 0 0 
L -4 0 
" id="m4c8c0bc163" style="stroke:#000000;stroke-width:0.5;"/>
      </defs>
      <g>
       <use style="stroke:#000000;stroke-width:0.5;" x="518.4" xlink:href="#m4c8c0bc163" y="388.8"/>
      </g>
     </g>
     <g id="text_6">
      <!-- −10 -->
      <defs>
       <path d="M 10.59375 35.5 
L 73.1875 35.5 
L 73.1875 27.203125 
L 10.59375 27.203125 
z
" id="BitstreamVeraSans-Roman-2212"/>
      </defs>
      <g transform="translate(42.674375 392.11125)scale(0.12 -0.12)">
       <use xlink:href="#BitstreamVeraSans-Roman-2212"/>
       <use x="83.7890625" xlink:href="#BitstreamVeraSans-Roman-31"/>
       <use x="147.412109375" xlink:href="#BitstreamVeraSans-Roman-30"/>
      </g>
     </g>
    </g>
    <g id="ytick_2">
     <g id="line2d_12">
      <g>
       <use style="stroke:#000000;stroke-width:0.5;" x="72.0" xlink:href="#mdd6c5360b4" y="339.428571429"/>
      </g>
     </g>
     <g id="line2d_13">
      <g>
       <use style="stroke:#000000;stroke-width:0.5;" x="518.4" xlink:href="#m4c8c0bc163" y="339.428571429"/>
      </g>
     </g>
     <g id="text_7">
      <!-- −5 -->
      <g transform="translate(50.309375 342.739821429)scale(0.12 -0.12)">
       <use xlink:href="#BitstreamVeraSans-Roman-2212"/>
       <use x="83.7890625" xlink:href="#BitstreamVeraSans-Roman-35"/>
      </g>
     </g>
    </g>
    <g id="ytick_3">
     <g id="line2d_14">
      <g>
       <use style="stroke:#000000;stroke-width:0.5;" x="72.0" xlink:href="#mdd6c5360b4" y="290.057142857"/>
      </g>
     </g>
     <g id="line2d_15">
      <g>
       <use style="stroke:#000000;stroke-width:0.5;" x="518.4" xlink:href="#m4c8c0bc163" y="290.057142857"/>
      </g>
     </g>
     <g id="text_8">
      <!-- 0 -->
      <g transform="translate(60.365 293.368392857)scale(0.12 -0.12)">
       <use xlink:href="#BitstreamVeraSans-Roman-30"/>
      </g>
     </g>
    </g>
    <g id="ytick_4">
     <g id="line2d_16">
      <g>
       <use style="stroke:#000000;stroke-width:0.5;" x="72.0" xlink:href="#mdd6c5360b4" y="240.685714286"/>
      </g>
     </g>
     <g id="line2d_17">
      <g>
       <use style="stroke:#000000;stroke-width:0.5;" x="518.4" xlink:href="#m4c8c0bc163" y="240.685714286"/>
      </g>
     </g>
     <g id="text_9">
      <!-- 5 -->
      <g transform="translate(60.365 243.996964286)scale(0.12 -0.12)">
       <use xlink:href="#BitstreamVeraSans-Roman-35"/>
      </g>
     </g>
    </g>
    <g id="ytick_5">
     <g id="line2d_18">
      <g>
       <use style="stroke:#000000;stroke-width:0.5;" x="72.0" xlink:href="#mdd6c5360b4" y="191.314285714"/>
      </g>
     </g>
     <g id="line2d_19">
      <g>
       <use style="stroke:#000000;stroke-width:0.5;" x="518.4" xlink:href="#m4c8c0bc163" y="191.314285714"/>
      </g>
     </g>
     <g id="text_10">
      <!-- 10 -->
      <g transform="translate(52.73 194.625535714)scale(0.12 -0.12)">
       <use xlink:href="#BitstreamVeraSans-Roman-31"/>
       <use x="63.623046875" xlink:href="#BitstreamVeraSans-Roman-30"/>
      </g>
     </g>
    </g>
    <g id="ytick_6">
     <g id="line2d_20">
      <g>
       <use style="stroke:#000000;stroke-width:0.5;" x="72.0" xlink:href="#mdd6c5360b4" y="141.942857143"/>
      </g>
     </g>
     <g id="line2d_21">
      <g>
       <use style="stroke:#000000;stroke-width:0.5;" x="518.4" xlink:href="#m4c8c0bc163" y="141.942857143"/>
      </g>
     </g>
     <g id="text_11">
      <!-- 15 -->
      <g transform="translate(52.73 145.254107143)scale(0.12 -0.12)">
       <use xlink:href="#BitstreamVeraSans-Roman-31"/>
       <use x="63.623046875" xlink:href="#BitstreamVeraSans-Roman-35"/>
      </g>
     </g>
    </g>
    <g id="ytick_7">
     <g id="line2d_22">
      <g>
       <use style="stroke:#000000;stroke-width:0.5;" x="72.0" xlink:href="#mdd6c5360b4" y="92.5714285714"/>
      </g>
     </g>
     <g id="line2d_23">
      <g>
       <use style="stroke:#000000;stroke-width:0.5;" x="518.4" xlink:href="#m4c8c0bc163" y="92.5714285714"/>
      </g>
     </g>
     <g id="text_12">
      <!-- 20 -->
      <g transform="translate(52.73 95.8826785714)scale(0.12 -0.12)">
       <use xlink:href="#BitstreamVeraSans-Roman-32"/>
       <use x="63.623046875" xlink:href="#BitstreamVeraSans-Roman-30"/>
      </g>
     </g>
    </g>
    <g id="ytick_8">
     <g id="line2d_24">
      <g>
       <use style="stroke:#000000;stroke-width:0.5;" x="72.0" xlink:href="#mdd6c5360b4" y="43.2"/>
      </g>
     </g>
     <g id="line2d_25">
      <g>
       <use style="stroke:#000000;stroke-width:0.5;" x="518.4" xlink:href="#m4c8c0bc163" y="43.2"/>
      </g>
     </g>
     <g id="text_13">
      <!-- 25 -->
      <g transform="translate(52.73 46.51125)scale(0.12 -0.12)">
       <use xlink:href="#BitstreamVeraSans-Roman-32"/>
       <use x="63.623046875" xlink:href="#BitstreamVeraSans-Roman-35"/>
      </g>
     </g>
    </g>
    <g id="text_14">
     <!-- temperature -->
     <defs>
      <path d="M 52 44.1875 
Q 55.375 50.25 60.0625 53.125 
Q 64.75 56 71.09375 56 
Q 79.640625 56 84.28125 50.015625 
Q 88.921875 44.046875 88.921875 33.015625 
L 88.921875 0 
L 79.890625 0 
L 79.890625 32.71875 
Q 79.890625 40.578125 77.09375 44.375 
Q 74.3125 48.1875 68.609375 48.1875 
Q 61.625 48.1875 57.5625 43.546875 
Q 53.515625 38.921875 53.515625 30.90625 
L 53.515625 0 
L 44.484375 0 
L 44.484375 32.71875 
Q 44.484375 40.625 41.703125 44.40625 
Q 38.921875 48.1875 33.109375 48.1875 
Q 26.21875 48.1875 22.15625 43.53125 
Q 18.109375 38.875 18.109375 30.90625 
L 18.109375 0 
L 9.078125 0 
L 9.078125 54.6875 
L 18.109375 54.6875 
L 18.109375 46.1875 
Q 21.1875 51.21875 25.484375 53.609375 
Q 29.78125 56 35.6875 56 
Q 41.65625 56 45.828125 52.96875 
Q 50 49.953125 52 44.1875 
" id="BitstreamVeraSans-Roman-6d"/>
      <path d="M 8.5 21.578125 
L 8.5 54.6875 
L 17.484375 54.6875 
L 17.484375 21.921875 
Q 17.484375 14.15625 20.5 10.265625 
Q 23.53125 6.390625 29.59375 6.390625 
Q 36.859375 6.390625 41.078125 11.03125 
Q 45.3125 15.671875 45.3125 23.6875 
L 45.3125 54.6875 
L 54.296875 54.6875 
L 54.296875 0 
L 45.3125 0 
L 45.3125 8.40625 
Q 42.046875 3.421875 37.71875 1 
Q 33.40625 -1.421875 27.6875 -1.421875 
Q 18.265625 -1.421875 13.375 4.4375 
Q 8.5 10.296875 8.5 21.578125 
" id="BitstreamVeraSans-Roman-75"/>
      <path d="M 18.3125 70.21875 
L 18.3125 54.6875 
L 36.8125 54.6875 
L 36.8125 47.703125 
L 18.3125 47.703125 
L 18.3125 18.015625 
Q 18.3125 11.328125 20.140625 9.421875 
Q 21.96875 7.515625 27.59375 7.515625 
L 36.8125 7.515625 
L 36.8125 0 
L 27.59375 0 
Q 17.1875 0 13.234375 3.875 
Q 9.28125 7.765625 9.28125 18.015625 
L 9.28125 47.703125 
L 2.6875 47.703125 
L 2.6875 54.6875 
L 9.28125 54.6875 
L 9.28125 70.21875 
z
" id="BitstreamVeraSans-Roman-74"/>
      <path d="M 18.109375 8.203125 
L 18.109375 -20.796875 
L 9.078125 -20.796875 
L 9.078125 54.6875 
L 18.109375 54.6875 
L 18.109375 46.390625 
Q 20.953125 51.265625 25.265625 53.625 
Q 29.59375 56 35.59375 56 
Q 45.5625 56 51.78125 48.09375 
Q 58.015625 40.1875 58.015625 27.296875 
Q 58.015625 14.40625 51.78125 6.484375 
Q 45.5625 -1.421875 35.59375 -1.421875 
Q 29.59375 -1.421875 25.265625 0.953125 
Q 20.953125 3.328125 18.109375 8.203125 
M 48.6875 27.296875 
Q 48.6875 37.203125 44.609375 42.84375 
Q 40.53125 48.484375 33.40625 48.484375 
Q 26.265625 48.484375 22.1875 42.84375 
Q 18.109375 37.203125 18.109375 27.296875 
Q 18.109375 17.390625 22.1875 11.75 
Q 26.265625 6.109375 33.40625 6.109375 
Q 40.53125 6.109375 44.609375 11.75 
Q 48.6875 17.390625 48.6875 27.296875 
" id="BitstreamVeraSans-Roman-70"/>
     </defs>
     <g transform="translate(35.17875 253.8440625)rotate(-90.0)scale(0.12 -0.12)">
      <use xlink:href="#BitstreamVeraSans-Roman-74"/>
      <use x="39.208984375" xlink:href="#BitstreamVeraSans-Roman-65"/>
      <use x="100.732421875" xlink:href="#BitstreamVeraSans-Roman-6d"/>
      <use x="198.14453125" xlink:href="#BitstreamVeraSans-Roman-70"/>
      <use x="261.62109375" xlink:href="#BitstreamVeraSans-Roman-65"/>
      <use x="323.14453125" xlink:href="#BitstreamVeraSans-Roman-72"/>
      <use x="364.2578125" xlink:href="#BitstreamVeraSans-Roman-61"/>
      <use x="425.537109375" xlink:href="#BitstreamVeraSans-Roman-74"/>
      <use x="464.74609375" xlink:href="#BitstreamVeraSans-Roman-75"/>
      <use x="528.125" xlink:href="#BitstreamVeraSans-Roman-72"/>
      <use x="569.20703125" xlink:href="#BitstreamVeraSans-Roman-65"/>
     </g>
    </g>
   </g>
  </g>
 </g>
 <defs>
  <clipPath id="pf749ce77d8">
   <rect height="345.6" width="446.4" x="72.0" y="43.2"/>
  </clipPath>
 </defs>
</svg>
