<?xml version="1.0" encoding="utf-8" standalone="no"?>
<!DOCTYPE svg PUBLIC "-//W3C//DTD SVG 1.1//EN"
  "http://www.w3.org/Graphics/SVG/1.1/DTD/svg11.dtd">
<!-- Created with matplotlib (http://matplotlib.org/) -->
<svg height="432pt" version="1.1" viewBox="0 0 576 432" width="576pt" xmlns="http://www.w3.org/2000/svg" xmlns:xlink="http://www.w3.org/1999/xlink">
 <defs>
  <style type="text/css">
*{stroke-linecap:butt;stroke-linejoin:round;stroke-miterlimit:100000;}
  </style>
 </defs>
 <g id="figure_1">
  <g id="patch_1">
   <path d="M 0 432 
L 576 432 
L 576 0 
L 0 0 
z
" style="fill:#ffffff;"/>
  </g>
  <g id="axes_1">
   <g id="patch_2">
    <path d="M 72 388.8 
L 518.4 388.8 
L 518.4 43.2 
L 72 43.2 
z
" style="fill:#ffffff;"/>
   </g>
   <g id="line2d_1">
    <path clip-path="url(#p68c33e3ca7)" d="M 69.612834 276.914469 
L 72 302.232137 
L 72 81.709714 
L 72 296.228571 
L 74.387166 314.594743 
L 74.387166 76.091246 
L 74.387166 279.402789 
L 76.774332 295.97184 
L 76.774332 74.402743 
L 76.774332 242.364343 
L 76.774332 242.364343 
L 76.774332 301.600183 
L 79.161497 328.547109 
L 79.161497 75.222309 
L 79.161497 297.364114 
L 81.548663 314.456503 
L 81.548663 77.305783 
L 81.548663 304.532846 
L 83.935829 309.351497 
L 83.935829 71.874926 
L 83.935829 283.342629 
L 86.322995 314.101029 
L 86.322995 85.323703 
L 86.322995 307.702491 
L 88.71016 315.177326 
L 88.71016 84.109166 
L 88.71016 312.540891 
L 91.097326 309.292251 
L 91.097326 84.74112 
L 91.097326 295.033783 
L 93.484492 330.18624 
L 93.484492 81.472731 
L 93.484492 291.400046 
L 95.871658 301.619931 
L 95.871658 92.6208 
L 95.871658 266.477349 
L 95.871658 266.477349 
L 95.871658 318.119863 
L 98.258824 315.345189 
L 98.258824 85.511314 
L 98.258824 297.749211 
L 100.645989 310.783269 
L 100.645989 86.577737 
L 100.645989 299.556206 
L 103.033155 340.880091 
L 103.033155 77.236663 
L 103.033155 301.43232 
L 105.420321 310.536411 
L 105.420321 76.486217 
L 105.420321 263.268206 
L 105.420321 263.268206 
L 105.420321 318.820937 
L 107.807487 307.248274 
L 107.807487 74.363246 
L 107.807487 261.155109 
L 107.807487 261.155109 
L 107.807487 308.097463 
L 110.194652 326.759863 
L 110.194652 76.071497 
L 110.194652 300.573257 
L 112.581818 314.940343 
L 112.581818 86.182766 
L 112.581818 289.257326 
L 114.968984 302.26176 
L 114.968984 82.420663 
L 114.968984 286.472777 
L 117.35615 310.961006 
L 117.35615 83.101989 
L 117.35615 260.434286 
L 117.35615 260.434286 
L 117.35615 311.45472 
L 119.743316 306.260846 
L 119.743316 80.198949 
L 119.743316 253.156937 
L 119.743316 253.156937 
L 119.743316 311.365851 
L 122.130481 298.539154 
L 122.130481 72.02304 
L 122.130481 290.916206 
L 124.517647 309.884709 
L 124.517647 79.55712 
L 124.517647 245.701851 
L 124.517647 245.701851 
L 124.517647 310.980754 
L 126.904813 331.025554 
L 126.904813 79.655863 
L 126.904813 304.098377 
L 129.291979 311.434971 
L 129.291979 79.409006 
L 129.291979 244.033097 
L 129.291979 244.033097 
L 129.291979 311.997806 
L 131.679144 327.372069 
L 131.679144 79.00416 
L 131.679144 302.488869 
L 134.06631 310.368549 
L 134.06631 77.710629 
L 134.06631 296.574171 
L 136.453476 310.07232 
L 136.453476 79.290514 
L 136.453476 292.130743 
L 138.840642 316.391863 
L 138.840642 76.644206 
L 138.840642 298.776137 
L 141.227807 322.138697 
L 141.227807 76.23936 
L 141.227807 293.493394 
L 143.614973 306.537326 
L 143.614973 82.884754 
L 143.614973 254.49984 
L 143.614973 254.49984 
L 143.614973 312.866743 
L 146.002139 310.496914 
L 146.002139 80.485303 
L 146.002139 297.926949 
L 148.389305 319.235657 
L 148.389305 83.348846 
L 148.389305 294.72768 
L 150.776471 308.838034 
L 150.776471 83.625326 
L 150.776471 306.152229 
L 153.163636 312.83712 
L 153.163636 83.882057 
L 153.163636 300.662126 
L 155.550802 317.389166 
L 155.550802 80.465554 
L 155.550802 256.731429 
L 155.550802 256.731429 
L 155.550802 317.389166 
L 157.937968 333.069531 
L 157.937968 80.653166 
L 157.937968 302.301257 
L 160.325134 329.949257 
L 160.325134 82.66752 
L 160.325134 315.374811 
L 162.712299 302.577737 
L 162.712299 82.193554 
L 162.712299 301.185463 
L 165.099465 319.95648 
L 165.099465 78.698057 
L 165.099465 310.566034 
L 167.486631 304.493349 
L 167.486631 80.119954 
L 167.486631 303.594789 
L 169.873797 306.576823 
L 169.873797 77.315657 
L 169.873797 289.148709 
L 172.260963 311.17824 
L 172.260963 80.633417 
L 172.260963 292.041874 
L 174.648128 318.692571 
L 174.648128 77.078674 
L 174.648128 298.558903 
L 177.035294 313.656686 
L 177.035294 78.846171 
L 177.035294 304.977189 
L 179.42246 315.552549 
L 179.42246 76.219611 
L 179.42246 310.891886 
L 181.809626 322.405303 
L 181.809626 79.1424 
L 181.809626 302.60736 
L 184.196791 321.003154 
L 184.196791 78.668434 
L 184.196791 306.971794 
L 186.583957 317.517531 
L 186.583957 78.431451 
L 186.583957 293.858743 
L 188.971123 309.499611 
L 188.971123 80.208823 
L 188.971123 296.929646 
L 191.358289 322.662034 
L 191.358289 79.922469 
L 191.358289 304.157623 
L 193.745455 317.250926 
L 193.745455 79.537371 
L 193.745455 311.474469 
L 196.13262 314.940343 
L 196.13262 76.436846 
L 196.13262 301.531063 
L 198.519786 318.109989 
L 198.519786 76.071497 
L 198.519786 297.156754 
L 200.906952 313.301211 
L 200.906952 79.853349 
L 200.906952 305.885623 
L 203.294118 318.386469 
L 203.294118 80.979017 
L 203.294118 300.681874 
L 205.681283 311.7312 
L 205.681283 79.251017 
L 205.681283 301.047223 
L 208.068449 306.260846 
L 208.068449 84.237531 
L 208.068449 256.662309 
L 208.068449 256.662309 
L 208.068449 310.259931 
L 210.455615 322.7904 
L 210.455615 81.07776 
L 210.455615 298.470034 
L 212.842781 315.11808 
L 212.842781 84.158537 
L 212.842781 300.701623 
L 215.229947 328.497737 
L 215.229947 82.282423 
L 215.229947 294.559817 
L 217.617112 324.548023 
L 217.617112 78.974537 
L 217.617112 296.850651 
L 220.004278 331.667383 
L 220.004278 80.347063 
L 220.004278 303.031954 
L 222.391444 320.005851 
L 222.391444 79.300389 
L 222.391444 302.044526 
L 224.77861 321.694354 
L 224.77861 80.011337 
L 224.77861 302.557989 
L 227.165775 320.588434 
L 227.165775 80.376686 
L 227.165775 301.817417 
L 229.552941 318.85056 
L 229.552941 82.509531 
L 229.552941 294.046354 
L 231.940107 318.218606 
L 231.940107 82.80576 
L 231.940107 302.271634 
L 234.327273 334.965394 
L 234.327273 79.043657 
L 234.327273 300.662126 
L 236.714439 321.180891 
L 236.714439 80.821029 
L 236.714439 299.901806 
L 239.101604 324.824503 
L 239.101604 81.383863 
L 239.101604 298.5984 
L 241.48877 314.505874 
L 241.48877 79.270766 
L 241.48877 299.812937 
L 243.875936 318.593829 
L 243.875936 77.167543 
L 243.875936 300.770743 
L 246.263102 308.008594 
L 246.263102 79.675611 
L 246.263102 297.640594 
L 248.650267 310.812891 
L 248.650267 80.287817 
L 248.650267 304.285989 
L 251.037433 325.14048 
L 251.037433 80.613669 
L 251.037433 295.251017 
L 253.424599 316.263497 
L 253.424599 77.769874 
L 253.424599 299.6352 
L 255.811765 310.269806 
L 255.811765 80.969143 
L 255.811765 307.119909 
L 258.19893 312.027429 
L 258.19893 82.39104 
L 258.19893 301.955657 
L 260.586096 319.778743 
L 260.586096 84.543634 
L 260.586096 297.324617 
L 262.973262 313.370331 
L 262.973262 81.058011 
L 262.973262 298.578651 
L 265.360428 318.050743 
L 265.360428 80.722286 
L 265.360428 291.321051 
L 267.747594 319.186286 
L 267.747594 84.316526 
L 267.747594 302.804846 
L 270.134759 314.969966 
L 270.134759 79.873097 
L 270.134759 302.567863 
L 272.521925 325.012114 
L 272.521925 81.245623 
L 272.521925 298.2528 
L 274.909091 312.511269 
L 274.909091 78.678309 
L 274.909091 305.352411 
L 277.296257 321.101897 
L 277.296257 80.771657 
L 277.296257 298.865006 
L 279.683422 314.614491 
L 279.683422 85.066971 
L 279.683422 302.597486 
L 282.070588 316.401737 
L 282.070588 82.32192 
L 282.070588 289.879406 
L 284.457754 300.731246 
L 284.457754 79.813851 
L 284.457754 296.149577 
L 286.84492 314.338011 
L 286.84492 79.122651 
L 286.84492 294.786926 
L 289.232086 310.3488 
L 289.232086 80.751909 
L 289.232086 249.700937 
L 289.232086 249.700937 
L 289.232086 310.368549 
L 291.619251 314.70336 
L 291.619251 79.675611 
L 291.619251 310.990629 
L 294.006417 316.411611 
L 294.006417 81.739337 
L 294.006417 305.490651 
L 296.393583 316.609097 
L 296.393583 79.961966 
L 296.393583 301.185463 
L 298.780749 307.465509 
L 298.780749 78.678309 
L 298.780749 307.16928 
L 301.167914 304.19712 
L 301.167914 75.488914 
L 301.167914 294.52032 
L 303.55508 316.15488 
L 303.55508 78.974537 
L 303.55508 294.016731 
L 305.942246 311.010377 
L 305.942246 81.107383 
L 305.942246 291.538286 
L 308.329412 313.854171 
L 308.329412 78.964663 
L 308.329412 296.702537 
L 310.716578 312.333531 
L 310.716578 80.238446 
L 310.716578 286.729509 
L 313.103743 300.168411 
L 313.103743 80.1792 
L 313.103743 298.400914 
L 315.490909 314.436754 
L 315.490909 77.34528 
L 315.490909 300.474514 
L 317.878075 304.996937 
L 317.878075 78.362331 
L 317.878075 292.851566 
L 320.265241 318.386469 
L 320.265241 81.917074 
L 320.265241 307.99872 
L 322.652406 313.538194 
L 322.652406 76.920686 
L 322.652406 293.039177 
L 325.039572 309.361371 
L 325.039572 75.40992 
L 325.039572 290.906331 
L 327.426738 298.746514 
L 327.426738 77.493394 
L 327.426738 296.475429 
L 329.813904 316.233874 
L 329.813904 78.293211 
L 329.813904 300.573257 
L 332.20107 311.563337 
L 332.20107 78.895543 
L 332.20107 289.415314 
L 334.588235 315.611794 
L 334.588235 77.661257 
L 334.588235 298.04544 
L 336.975401 315.04896 
L 336.975401 75.27168 
L 336.975401 290.738469 
L 339.362567 311.908937 
L 339.362567 77.118171 
L 339.362567 297.127131 
L 341.749733 305.668389 
L 341.749733 76.831817 
L 341.749733 297.028389 
L 344.136898 306.882926 
L 344.136898 76.644206 
L 344.136898 276.667611 
L 346.524064 314.110903 
L 346.524064 76.703451 
L 346.524064 289.988023 
L 348.91123 308.077714 
L 348.91123 75.311177 
L 348.91123 294.994286 
L 351.298396 305.599269 
L 351.298396 78.500571 
L 351.298396 290.23488 
L 353.685561 313.429577 
L 353.685561 77.286034 
L 353.685561 286.512274 
L 356.072727 298.568777 
L 356.072727 77.374903 
L 356.072727 298.39104 
L 358.459893 311.583086 
L 358.459893 79.122651 
L 358.459893 301.343451 
L 360.847059 305.401783 
L 360.847059 77.996983 
L 360.847059 302.064274 
L 363.234225 312.432274 
L 363.234225 78.17472 
L 363.234225 293.542766 
L 365.62139 300.089417 
L 365.62139 77.424274 
L 365.62139 298.154057 
L 368.008556 303.081326 
L 368.008556 80.11008 
L 368.008556 298.203429 
L 370.395722 318.534583 
L 370.395722 81.798583 
L 370.395722 295.547246 
L 372.782888 316.105509 
L 372.782888 77.917989 
L 372.782888 286.176549 
L 375.170053 306.833554 
L 375.170053 75.864137 
L 375.170053 294.925166 
L 377.557219 305.767131 
L 377.557219 75.518537 
L 377.557219 290.945829 
L 379.944385 318.050743 
L 379.944385 78.342583 
L 379.944385 296.712411 
L 382.331551 300.099291 
L 382.331551 78.401829 
L 382.331551 298.756389 
L 384.718717 312.254537 
L 384.718717 80.840777 
L 384.718717 297.946697 
L 387.105882 313.360457 
L 387.105882 78.599314 
L 387.105882 287.865051 
L 389.493048 299.447589 
L 389.493048 78.846171 
L 389.493048 290.92608 
L 391.880214 305.64864 
L 391.880214 78.707931 
L 391.880214 294.273463 
L 394.26738 309.183634 
L 394.26738 78.638811 
L 394.26738 286.324663 
L 396.654545 306.981669 
L 396.654545 78.461074 
L 396.654545 296.050834 
L 399.041711 303.900891 
L 399.041711 76.891063 
L 399.041711 290.057143 
L 401.428877 306.300343 
L 401.428877 76.713326 
L 401.428877 293.819246 
L 403.816043 308.670171 
L 403.816043 79.389257 
L 403.816043 296.692663 
L 406.203209 307.702491 
L 406.203209 80.139703 
L 406.203209 293.96736 
L 408.590374 312.768 
L 408.590374 76.713326 
L 408.590374 299.240229 
L 410.97754 312.827246 
L 410.97754 78.322834 
L 410.97754 292.180114 
L 413.364706 314.960091 
L 413.364706 81.07776 
L 413.364706 299.793189 
L 415.751872 323.442103 
L 415.751872 77.917989 
L 415.751872 288.072411 
L 418.139037 309.845211 
L 418.139037 77.039177 
L 418.139037 298.203429 
L 420.526203 308.06784 
L 420.526203 79.744731 
L 420.526203 292.703451 
L 422.913369 321.68448 
L 422.913369 79.409006 
L 422.913369 296.149577 
L 425.300535 308.06784 
L 425.300535 77.019429 
L 425.300535 290.23488 
L 427.687701 316.470857 
L 427.687701 78.628937 
L 427.687701 297.255497 
L 430.074866 304.661211 
L 430.074866 77.592137 
L 430.074866 294.214217 
L 432.462032 305.362286 
L 432.462032 81.5616 
L 432.462032 297.49248 
L 434.849198 316.243749 
L 434.849198 77.305783 
L 434.849198 293.602011 
L 437.236364 308.304823 
L 437.236364 80.840777 
L 437.236364 293.049051 
L 439.623529 311.770697 
L 439.623529 77.592137 
L 439.623529 283.421623 
L 442.010695 308.285074 
L 442.010695 76.51584 
L 442.010695 291.370423 
L 444.397861 294.253714 
L 444.397861 76.3776 
L 444.397861 283.105646 
L 446.785027 312.886491 
L 446.785027 76.673829 
L 446.785027 288.111909 
L 449.172193 301.659429 
L 449.172193 74.284251 
L 449.172193 291.745646 
L 451.559358 306.389211 
L 451.559358 77.681006 
L 451.559358 303.940389 
L 453.946524 307.781486 
L 453.946524 80.633417 
L 453.946524 291.804891 
L 456.33369 301.145966 
L 456.33369 78.678309 
L 456.33369 293.503269 
L 458.720856 305.99424 
L 458.720856 74.175634 
L 458.720856 284.63616 
L 461.108021 302.311131 
L 461.108021 72.003291 
L 461.108021 283.59936 
L 463.495187 308.196206 
L 463.495187 74.363246 
L 463.495187 286.926994 
L 465.882353 304.236617 
L 465.882353 75.795017 
L 465.882353 287.568823 
L 468.269519 302.943086 
L 468.269519 73.000594 
L 468.269519 292.140617 
L 470.656684 299.003246 
L 470.656684 81.650469 
L 470.656684 289.207954 
L 473.04385 302.370377 
L 473.04385 76.831817 
L 473.04385 289.12896 
L 475.431016 305.865874 
L 475.431016 74.481737 
L 475.431016 290.85696 
L 477.818182 297.63072 
L 477.818182 74.452114 
L 477.818182 289.938651 
L 480.205348 307.850606 
L 480.205348 74.116389 
L 480.205348 287.519451 
L 482.592513 303.140571 
L 482.592513 74.323749 
L 482.592513 288.200777 
L 484.979679 303.002331 
L 484.979679 67.520366 
L 484.979679 281.45664 
L 487.366845 299.733943 
L 487.366845 72.240274 
L 487.366845 279.2448 
L 489.754011 303.979886 
L 489.754011 72.062537 
L 489.754011 292.713326 
L 492.141176 301.787794 
L 492.141176 69.791451 
L 492.141176 284.418926 
L 494.528342 293.374903 
L 494.528342 68.004206 
L 494.528342 291.27168 
L 496.915508 295.41888 
L 496.915508 71.203474 
L 496.915508 277.566171 
L 499.302674 300.444891 
L 499.302674 74.738469 
L 499.302674 290.768091 
L 501.68984 298.371291 
L 501.68984 69.653211 
L 501.68984 281.308526 
L 504.077005 303.634286 
L 504.077005 69.988937 
L 504.077005 277.042834 
L 506.464171 285.781577 
L 506.464171 69.732206 
L 506.464171 282.809417 
L 508.851337 308.640549 
L 508.851337 71.420709 
L 508.851337 286.374034 
L 511.238503 297.887451 
L 511.238503 71.558949 
L 511.238503 288.625371 
L 513.625668 299.22048 
L 513.625668 66.315703 
L 513.625668 287.26272 
L 516.012834 303.614537 
L 516.012834 68.093074 
L 516.012834 281.80224 
L 518.4 303.426926 
L 518.4 67.125394 
L 518.4 293.394651 
" style="fill:none;stroke:#0000ff;stroke-linecap:square;"/>
   </g>
   <g id="patch_3">
    <path d="M 72 388.8 
L 72 43.2 
" style="fill:none;stroke:#000000;stroke-linecap:square;stroke-linejoin:miter;"/>
   </g>
   <g id="patch_4">
    <path d="M 72 43.2 
L 518.4 43.2 
" style="fill:none;stroke:#000000;stroke-linecap:square;stroke-linejoin:miter;"/>
   </g>
   <g id="patch_5">
    <path d="M 518.4 388.8 
L 518.4 43.2 
" style="fill:none;stroke:#000000;stroke-linecap:square;stroke-linejoin:miter;"/>
   </g>
   <g id="patch_6">
    <path d="M 72 388.8 
L 518.4 388.8 
" style="fill:none;stroke:#000000;stroke-linecap:square;stroke-linejoin:miter;"/>
   </g>
   <g id="matplotlib.axis_1">
    <g id="xtick_1">
     <g id="line2d_2">
      <defs>
       <path d="M 0 0 
L 0 -4 
" id="m949b246f05" style="stroke:#000000;stroke-width:0.5;"/>
      </defs>
      <g>
       <use style="stroke:#000000;stroke-width:0.5;" x="131.679144385" xlink:href="#m949b246f05" y="388.8"/>
      </g>
     </g>
     <g id="line2d_3">
      <defs>
       <path d="M 0 0 
L 0 4 
" id="mb30403b8f1" style="stroke:#000000;stroke-width:0.5;"/>
      </defs>
      <g>
       <use style="stroke:#000000;stroke-width:0.5;" x="131.679144385" xlink:href="#mb30403b8f1" y="43.2"/>
      </g>
     </g>
     <g id="text_1">
      <!-- 1850 -->
      <defs>
       <path d="M 12.40625 8.296875 
L 28.515625 8.296875 
L 28.515625 63.921875 
L 10.984375 60.40625 
L 10.984375 69.390625 
L 28.421875 72.90625 
L 38.28125 72.90625 
L 38.28125 8.296875 
L 54.390625 8.296875 
L 54.390625 0 
L 12.40625 0 
z
" id="BitstreamVeraSans-Roman-31"/>
       <path d="M 31.78125 34.625 
Q 24.75 34.625 20.71875 30.859375 
Q 16.703125 27.09375 16.703125 20.515625 
Q 16.703125 13.921875 20.71875 10.15625 
Q 24.75 6.390625 31.78125 6.390625 
Q 38.8125 6.390625 42.859375 10.171875 
Q 46.921875 13.96875 46.921875 20.515625 
Q 46.921875 27.09375 42.890625 30.859375 
Q 38.875 34.625 31.78125 34.625 
M 21.921875 38.8125 
Q 15.578125 40.375 12.03125 44.71875 
Q 8.5 49.078125 8.5 55.328125 
Q 8.5 64.0625 14.71875 69.140625 
Q 20.953125 74.21875 31.78125 74.21875 
Q 42.671875 74.21875 48.875 69.140625 
Q 55.078125 64.0625 55.078125 55.328125 
Q 55.078125 49.078125 51.53125 44.71875 
Q 48 40.375 41.703125 38.8125 
Q 48.828125 37.15625 52.796875 32.3125 
Q 56.78125 27.484375 56.78125 20.515625 
Q 56.78125 9.90625 50.3125 4.234375 
Q 43.84375 -1.421875 31.78125 -1.421875 
Q 19.734375 -1.421875 13.25 4.234375 
Q 6.78125 9.90625 6.78125 20.515625 
Q 6.78125 27.484375 10.78125 32.3125 
Q 14.796875 37.15625 21.921875 38.8125 
M 18.3125 54.390625 
Q 18.3125 48.734375 21.84375 45.5625 
Q 25.390625 42.390625 31.78125 42.390625 
Q 38.140625 42.390625 41.71875 45.5625 
Q 45.3125 48.734375 45.3125 54.390625 
Q 45.3125 60.0625 41.71875 63.234375 
Q 38.140625 66.40625 31.78125 66.40625 
Q 25.390625 66.40625 21.84375 63.234375 
Q 18.3125 60.0625 18.3125 54.390625 
" id="BitstreamVeraSans-Roman-38"/>
       <path d="M 31.78125 66.40625 
Q 24.171875 66.40625 20.328125 58.90625 
Q 16.5 51.421875 16.5 36.375 
Q 16.5 21.390625 20.328125 13.890625 
Q 24.171875 6.390625 31.78125 6.390625 
Q 39.453125 6.390625 43.28125 13.890625 
Q 47.125 21.390625 47.125 36.375 
Q 47.125 51.421875 43.28125 58.90625 
Q 39.453125 66.40625 31.78125 66.40625 
M 31.78125 74.21875 
Q 44.046875 74.21875 50.515625 64.515625 
Q 56.984375 54.828125 56.984375 36.375 
Q 56.984375 17.96875 50.515625 8.265625 
Q 44.046875 -1.421875 31.78125 -1.421875 
Q 19.53125 -1.421875 13.0625 8.265625 
Q 6.59375 17.96875 6.59375 36.375 
Q 6.59375 54.828125 13.0625 64.515625 
Q 19.53125 74.21875 31.78125 74.21875 
" id="BitstreamVeraSans-Roman-30"/>
       <path d="M 10.796875 72.90625 
L 49.515625 72.90625 
L 49.515625 64.59375 
L 19.828125 64.59375 
L 19.828125 46.734375 
Q 21.96875 47.46875 24.109375 47.828125 
Q 26.265625 48.1875 28.421875 48.1875 
Q 40.625 48.1875 47.75 41.5 
Q 54.890625 34.8125 54.890625 23.390625 
Q 54.890625 11.625 47.5625 5.09375 
Q 40.234375 -1.421875 26.90625 -1.421875 
Q 22.3125 -1.421875 17.546875 -0.640625 
Q 12.796875 0.140625 7.71875 1.703125 
L 7.71875 11.625 
Q 12.109375 9.234375 16.796875 8.0625 
Q 21.484375 6.890625 26.703125 6.890625 
Q 35.15625 6.890625 40.078125 11.328125 
Q 45.015625 15.765625 45.015625 23.390625 
Q 45.015625 31 40.078125 35.4375 
Q 35.15625 39.890625 26.703125 39.890625 
Q 22.75 39.890625 18.8125 39.015625 
Q 14.890625 38.140625 10.796875 36.28125 
z
" id="BitstreamVeraSans-Roman-35"/>
      </defs>
      <g transform="translate(116.409144385 401.918125)scale(0.12 -0.12)">
       <use xlink:href="#BitstreamVeraSans-Roman-31"/>
       <use x="63.623046875" xlink:href="#BitstreamVeraSans-Roman-38"/>
       <use x="127.24609375" xlink:href="#BitstreamVeraSans-Roman-35"/>
       <use x="190.869140625" xlink:href="#BitstreamVeraSans-Roman-30"/>
      </g>
     </g>
    </g>
    <g id="xtick_2">
     <g id="line2d_4">
      <g>
       <use style="stroke:#000000;stroke-width:0.5;" x="251.037433155" xlink:href="#m949b246f05" y="388.8"/>
      </g>
     </g>
     <g id="line2d_5">
      <g>
       <use style="stroke:#000000;stroke-width:0.5;" x="251.037433155" xlink:href="#mb30403b8f1" y="43.2"/>
      </g>
     </g>
     <g id="text_2">
      <!-- 1900 -->
      <defs>
       <path d="M 10.984375 1.515625 
L 10.984375 10.5 
Q 14.703125 8.734375 18.5 7.8125 
Q 22.3125 6.890625 25.984375 6.890625 
Q 35.75 6.890625 40.890625 13.453125 
Q 46.046875 20.015625 46.78125 33.40625 
Q 43.953125 29.203125 39.59375 26.953125 
Q 35.25 24.703125 29.984375 24.703125 
Q 19.046875 24.703125 12.671875 31.3125 
Q 6.296875 37.9375 6.296875 49.421875 
Q 6.296875 60.640625 12.9375 67.421875 
Q 19.578125 74.21875 30.609375 74.21875 
Q 43.265625 74.21875 49.921875 64.515625 
Q 56.59375 54.828125 56.59375 36.375 
Q 56.59375 19.140625 48.40625 8.859375 
Q 40.234375 -1.421875 26.421875 -1.421875 
Q 22.703125 -1.421875 18.890625 -0.6875 
Q 15.09375 0.046875 10.984375 1.515625 
M 30.609375 32.421875 
Q 37.25 32.421875 41.125 36.953125 
Q 45.015625 41.5 45.015625 49.421875 
Q 45.015625 57.28125 41.125 61.84375 
Q 37.25 66.40625 30.609375 66.40625 
Q 23.96875 66.40625 20.09375 61.84375 
Q 16.21875 57.28125 16.21875 49.421875 
Q 16.21875 41.5 20.09375 36.953125 
Q 23.96875 32.421875 30.609375 32.421875 
" id="BitstreamVeraSans-Roman-39"/>
      </defs>
      <g transform="translate(235.767433155 401.918125)scale(0.12 -0.12)">
       <use xlink:href="#BitstreamVeraSans-Roman-31"/>
       <use x="63.623046875" xlink:href="#BitstreamVeraSans-Roman-39"/>
       <use x="127.24609375" xlink:href="#BitstreamVeraSans-Roman-30"/>
       <use x="190.869140625" xlink:href="#BitstreamVeraSans-Roman-30"/>
      </g>
     </g>
    </g>
    <g id="xtick_3">
     <g id="line2d_6">
      <g>
       <use style="stroke:#000000;stroke-width:0.5;" x="370.395721925" xlink:href="#m949b246f05" y="388.8"/>
      </g>
     </g>
     <g id="line2d_7">
      <g>
       <use style="stroke:#000000;stroke-width:0.5;" x="370.395721925" xlink:href="#mb30403b8f1" y="43.2"/>
      </g>
     </g>
     <g id="text_3">
      <!-- 1950 -->
      <g transform="translate(355.125721925 401.918125)scale(0.12 -0.12)">
       <use xlink:href="#BitstreamVeraSans-Roman-31"/>
       <use x="63.623046875" xlink:href="#BitstreamVeraSans-Roman-39"/>
       <use x="127.24609375" xlink:href="#BitstreamVeraSans-Roman-35"/>
       <use x="190.869140625" xlink:href="#BitstreamVeraSans-Roman-30"/>
      </g>
     </g>
    </g>
    <g id="xtick_4">
     <g id="line2d_8">
      <g>
       <use style="stroke:#000000;stroke-width:0.5;" x="489.754010695" xlink:href="#m949b246f05" y="388.8"/>
      </g>
     </g>
     <g id="line2d_9">
      <g>
       <use style="stroke:#000000;stroke-width:0.5;" x="489.754010695" xlink:href="#mb30403b8f1" y="43.2"/>
      </g>
     </g>
     <g id="text_4">
      <!-- 2000 -->
      <defs>
       <path d="M 19.1875 8.296875 
L 53.609375 8.296875 
L 53.609375 0 
L 7.328125 0 
L 7.328125 8.296875 
Q 12.9375 14.109375 22.625 23.890625 
Q 32.328125 33.6875 34.8125 36.53125 
Q 39.546875 41.84375 41.421875 45.53125 
Q 43.3125 49.21875 43.3125 52.78125 
Q 43.3125 58.59375 39.234375 62.25 
Q 35.15625 65.921875 28.609375 65.921875 
Q 23.96875 65.921875 18.8125 64.3125 
Q 13.671875 62.703125 7.8125 59.421875 
L 7.8125 69.390625 
Q 13.765625 71.78125 18.9375 73 
Q 24.125 74.21875 28.421875 74.21875 
Q 39.75 74.21875 46.484375 68.546875 
Q 53.21875 62.890625 53.21875 53.421875 
Q 53.21875 48.921875 51.53125 44.890625 
Q 49.859375 40.875 45.40625 35.40625 
Q 44.1875 33.984375 37.640625 27.21875 
Q 31.109375 20.453125 19.1875 8.296875 
" id="BitstreamVeraSans-Roman-32"/>
      </defs>
      <g transform="translate(474.484010695 401.918125)scale(0.12 -0.12)">
       <use xlink:href="#BitstreamVeraSans-Roman-32"/>
       <use x="63.623046875" xlink:href="#BitstreamVeraSans-Roman-30"/>
       <use x="127.24609375" xlink:href="#BitstreamVeraSans-Roman-30"/>
       <use x="190.869140625" xlink:href="#BitstreamVeraSans-Roman-30"/>
      </g>
     </g>
    </g>
    <g id="text_5">
     <!-- Year -->
     <defs>
      <path d="M 41.109375 46.296875 
Q 39.59375 47.171875 37.8125 47.578125 
Q 36.03125 48 33.890625 48 
Q 26.265625 48 22.1875 43.046875 
Q 18.109375 38.09375 18.109375 28.8125 
L 18.109375 0 
L 9.078125 0 
L 9.078125 54.6875 
L 18.109375 54.6875 
L 18.109375 46.1875 
Q 20.953125 51.171875 25.484375 53.578125 
Q 30.03125 56 36.53125 56 
Q 37.453125 56 38.578125 55.875 
Q 39.703125 55.765625 41.0625 55.515625 
z
" id="BitstreamVeraSans-Roman-72"/>
      <path d="M -0.203125 72.90625 
L 10.40625 72.90625 
L 30.609375 42.921875 
L 50.6875 72.90625 
L 61.28125 72.90625 
L 35.5 34.71875 
L 35.5 0 
L 25.59375 0 
L 25.59375 34.71875 
z
" id="BitstreamVeraSans-Roman-59"/>
      <path d="M 34.28125 27.484375 
Q 23.390625 27.484375 19.1875 25 
Q 14.984375 22.515625 14.984375 16.5 
Q 14.984375 11.71875 18.140625 8.90625 
Q 21.296875 6.109375 26.703125 6.109375 
Q 34.1875 6.109375 38.703125 11.40625 
Q 43.21875 16.703125 43.21875 25.484375 
L 43.21875 27.484375 
z
M 52.203125 31.203125 
L 52.203125 0 
L 43.21875 0 
L 43.21875 8.296875 
Q 40.140625 3.328125 35.546875 0.953125 
Q 30.953125 -1.421875 24.3125 -1.421875 
Q 15.921875 -1.421875 10.953125 3.296875 
Q 6 8.015625 6 15.921875 
Q 6 25.140625 12.171875 29.828125 
Q 18.359375 34.515625 30.609375 34.515625 
L 43.21875 34.515625 
L 43.21875 35.40625 
Q 43.21875 41.609375 39.140625 45 
Q 35.0625 48.390625 27.6875 48.390625 
Q 23 48.390625 18.546875 47.265625 
Q 14.109375 46.140625 10.015625 43.890625 
L 10.015625 52.203125 
Q 14.9375 54.109375 19.578125 55.046875 
Q 24.21875 56 28.609375 56 
Q 40.484375 56 46.34375 49.84375 
Q 52.203125 43.703125 52.203125 31.203125 
" id="BitstreamVeraSans-Roman-61"/>
      <path d="M 56.203125 29.59375 
L 56.203125 25.203125 
L 14.890625 25.203125 
Q 15.484375 15.921875 20.484375 11.0625 
Q 25.484375 6.203125 34.421875 6.203125 
Q 39.59375 6.203125 44.453125 7.46875 
Q 49.3125 8.734375 54.109375 11.28125 
L 54.109375 2.78125 
Q 49.265625 0.734375 44.1875 -0.34375 
Q 39.109375 -1.421875 33.890625 -1.421875 
Q 20.796875 -1.421875 13.15625 6.1875 
Q 5.515625 13.8125 5.515625 26.8125 
Q 5.515625 40.234375 12.765625 48.109375 
Q 20.015625 56 32.328125 56 
Q 43.359375 56 49.78125 48.890625 
Q 56.203125 41.796875 56.203125 29.59375 
M 47.21875 32.234375 
Q 47.125 39.59375 43.09375 43.984375 
Q 39.0625 48.390625 32.421875 48.390625 
Q 24.90625 48.390625 20.390625 44.140625 
Q 15.875 39.890625 15.1875 32.171875 
z
" id="BitstreamVeraSans-Roman-65"/>
     </defs>
     <g transform="translate(281.7121875 418.531875)scale(0.12 -0.12)">
      <use xlink:href="#BitstreamVeraSans-Roman-59"/>
      <use x="60.880859375" xlink:href="#BitstreamVeraSans-Roman-65"/>
      <use x="122.404296875" xlink:href="#BitstreamVeraSans-Roman-61"/>
      <use x="183.68359375" xlink:href="#BitstreamVeraSans-Roman-72"/>
     </g>
    </g>
   </g>
   <g id="matplotlib.axis_2">
    <g id="ytick_1">
     <g id="line2d_10">
      <defs>
       <path d="M 0 0 
L 4 0 
" id="m24ef6bca53" style="stroke:#000000;stroke-width:0.5;"/>
      </defs>
      <g>
       <use style="stroke:#000000;stroke-width:0.5;" x="72.0" xlink:href="#m24ef6bca53" y="388.8"/>
      </g>
     </g>
     <g id="line2d_11">
      <defs>
       <path d="M 0 0 
L -4 0 
" id="m9fb45359df" style="stroke:#000000;stroke-width:0.5;"/>
      </defs>
      <g>
       <use style="stroke:#000000;stroke-width:0.5;" x="518.4" xlink:href="#m9fb45359df" y="388.8"/>
      </g>
     </g>
     <g id="text_6">
      <!-- −10 -->
      <defs>
       <path d="M 10.59375 35.5 
L 73.1875 35.5 
L 73.1875 27.203125 
L 10.59375 27.203125 
z
" id="BitstreamVeraSans-Roman-2212"/>
      </defs>
      <g transform="translate(42.674375 392.11125)scale(0.12 -0.12)">
       <use xlink:href="#BitstreamVeraSans-Roman-2212"/>
       <use x="83.7890625" xlink:href="#BitstreamVeraSans-Roman-31"/>
       <use x="147.412109375" xlink:href="#BitstreamVeraSans-Roman-30"/>
      </g>
     </g>
    </g>
    <g id="ytick_2">
     <g id="line2d_12">
      <g>
       <use style="stroke:#000000;stroke-width:0.5;" x="72.0" xlink:href="#m24ef6bca53" y="339.428571429"/>
      </g>
     </g>
     <g id="line2d_13">
      <g>
       <use style="stroke:#000000;stroke-width:0.5;" x="518.4" xlink:href="#m9fb45359df" y="339.428571429"/>
      </g>
     </g>
     <g id="text_7">
      <!-- −5 -->
      <g transform="translate(50.309375 342.739821429)scale(0.12 -0.12)">
       <use xlink:href="#BitstreamVeraSans-Roman-2212"/>
       <use x="83.7890625" xlink:href="#BitstreamVeraSans-Roman-35"/>
      </g>
     </g>
    </g>
    <g id="ytick_3">
     <g id="line2d_14">
      <g>
       <use style="stroke:#000000;stroke-width:0.5;" x="72.0" xlink:href="#m24ef6bca53" y="290.057142857"/>
      </g>
     </g>
     <g id="line2d_15">
      <g>
       <use style="stroke:#000000;stroke-width:0.5;" x="518.4" xlink:href="#m9fb45359df" y="290.057142857"/>
      </g>
     </g>
     <g id="text_8">
      <!-- 0 -->
      <g transform="translate(60.365 293.368392857)scale(0.12 -0.12)">
       <use xlink:href="#BitstreamVeraSans-Roman-30"/>
      </g>
     </g>
    </g>
    <g id="ytick_4">
     <g id="line2d_16">
      <g>
       <use style="stroke:#000000;stroke-width:0.5;" x="72.0" xlink:href="#m24ef6bca53" y="240.685714286"/>
      </g>
     </g>
     <g id="line2d_17">
      <g>
       <use style="stroke:#000000;stroke-width:0.5;" x="518.4" xlink:href="#m9fb45359df" y="240.685714286"/>
      </g>
     </g>
     <g id="text_9">
      <!-- 5 -->
      <g transform="translate(60.365 243.996964286)scale(0.12 -0.12)">
       <use xlink:href="#BitstreamVeraSans-Roman-35"/>
      </g>
     </g>
    </g>
    <g id="ytick_5">
     <g id="line2d_18">
      <g>
       <use style="stroke:#000000;stroke-width:0.5;" x="72.0" xlink:href="#m24ef6bca53" y="191.314285714"/>
      </g>
     </g>
     <g id="line2d_19">
      <g>
       <use style="stroke:#000000;stroke-width:0.5;" x="518.4" xlink:href="#m9fb45359df" y="191.314285714"/>
      </g>
     </g>
     <g id="text_10">
      <!-- 10 -->
      <g transform="translate(52.73 194.625535714)scale(0.12 -0.12)">
       <use xlink:href="#BitstreamVeraSans-Roman-31"/>
       <use x="63.623046875" xlink:href="#BitstreamVeraSans-Roman-30"/>
      </g>
     </g>
    </g>
    <g id="ytick_6">
     <g id="line2d_20">
      <g>
       <use style="stroke:#000000;stroke-width:0.5;" x="72.0" xlink:href="#m24ef6bca53" y="141.942857143"/>
      </g>
     </g>
     <g id="line2d_21">
      <g>
       <use style="stroke:#000000;stroke-width:0.5;" x="518.4" xlink:href="#m9fb45359df" y="141.942857143"/>
      </g>
     </g>
     <g id="text_11">
      <!-- 15 -->
      <g transform="translate(52.73 145.254107143)scale(0.12 -0.12)">
       <use xlink:href="#BitstreamVeraSans-Roman-31"/>
       <use x="63.623046875" xlink:href="#BitstreamVeraSans-Roman-35"/>
      </g>
     </g>
    </g>
    <g id="ytick_7">
     <g id="line2d_22">
      <g>
       <use style="stroke:#000000;stroke-width:0.5;" x="72.0" xlink:href="#m24ef6bca53" y="92.5714285714"/>
      </g>
     </g>
     <g id="line2d_23">
      <g>
       <use style="stroke:#000000;stroke-width:0.5;" x="518.4" xlink:href="#m9fb45359df" y="92.5714285714"/>
      </g>
     </g>
     <g id="text_12">
      <!-- 20 -->
      <g transform="translate(52.73 95.8826785714)scale(0.12 -0.12)">
       <use xlink:href="#BitstreamVeraSans-Roman-32"/>
       <use x="63.623046875" xlink:href="#BitstreamVeraSans-Roman-30"/>
      </g>
     </g>
    </g>
    <g id="ytick_8">
     <g id="line2d_24">
      <g>
       <use style="stroke:#000000;stroke-width:0.5;" x="72.0" xlink:href="#m24ef6bca53" y="43.2"/>
      </g>
     </g>
     <g id="line2d_25">
      <g>
       <use style="stroke:#000000;stroke-width:0.5;" x="518.4" xlink:href="#m9fb45359df" y="43.2"/>
      </g>
     </g>
     <g id="text_13">
      <!-- 25 -->
      <g transform="translate(52.73 46.51125)scale(0.12 -0.12)">
       <use xlink:href="#BitstreamVeraSans-Roman-32"/>
       <use x="63.623046875" xlink:href="#BitstreamVeraSans-Roman-35"/>
      </g>
     </g>
    </g>
    <g id="text_14">
     <!-- temperature -->
     <defs>
      <path d="M 8.5 21.578125 
L 8.5 54.6875 
L 17.484375 54.6875 
L 17.484375 21.921875 
Q 17.484375 14.15625 20.5 10.265625 
Q 23.53125 6.390625 29.59375 6.390625 
Q 36.859375 6.390625 41.078125 11.03125 
Q 45.3125 15.671875 45.3125 23.6875 
L 45.3125 54.6875 
L 54.296875 54.6875 
L 54.296875 0 
L 45.3125 0 
L 45.3125 8.40625 
Q 42.046875 3.421875 37.71875 1 
Q 33.40625 -1.421875 27.6875 -1.421875 
Q 18.265625 -1.421875 13.375 4.4375 
Q 8.5 10.296875 8.5 21.578125 
" id="BitstreamVeraSans-Roman-75"/>
      <path d="M 18.3125 70.21875 
L 18.3125 54.6875 
L 36.8125 54.6875 
L 36.8125 47.703125 
L 18.3125 47.703125 
L 18.3125 18.015625 
Q 18.3125 11.328125 20.140625 9.421875 
Q 21.96875 7.515625 27.59375 7.515625 
L 36.8125 7.515625 
L 36.8125 0 
L 27.59375 0 
Q 17.1875 0 13.234375 3.875 
Q 9.28125 7.765625 9.28125 18.015625 
L 9.28125 47.703125 
L 2.6875 47.703125 
L 2.6875 54.6875 
L 9.28125 54.6875 
L 9.28125 70.21875 
z
" id="BitstreamVeraSans-Roman-74"/>
      <path d="M 52 44.1875 
Q 55.375 50.25 60.0625 53.125 
Q 64.75 56 71.09375 56 
Q 79.640625 56 84.28125 50.015625 
Q 88.921875 44.046875 88.921875 33.015625 
L 88.921875 0 
L 79.890625 0 
L 79.890625 32.71875 
Q 79.890625 40.578125 77.09375 44.375 
Q 74.3125 48.1875 68.609375 48.1875 
Q 61.625 48.1875 57.5625 43.546875 
Q 53.515625 38.921875 53.515625 30.90625 
L 53.515625 0 
L 44.484375 0 
L 44.484375 32.71875 
Q 44.484375 40.625 41.703125 44.40625 
Q 38.921875 48.1875 33.109375 48.1875 
Q 26.21875 48.1875 22.15625 43.53125 
Q 18.109375 38.875 18.109375 30.90625 
L 18.109375 0 
L 9.078125 0 
L 9.078125 54.6875 
L 18.109375 54.6875 
L 18.109375 46.1875 
Q 21.1875 51.21875 25.484375 53.609375 
Q 29.78125 56 35.6875 56 
Q 41.65625 56 45.828125 52.96875 
Q 50 49.953125 52 44.1875 
" id="BitstreamVeraSans-Roman-6d"/>
      <path d="M 18.109375 8.203125 
L 18.109375 -20.796875 
L 9.078125 -20.796875 
L 9.078125 54.6875 
L 18.109375 54.6875 
L 18.109375 46.390625 
Q 20.953125 51.265625 25.265625 53.625 
Q 29.59375 56 35.59375 56 
Q 45.5625 56 51.78125 48.09375 
Q 58.015625 40.1875 58.015625 27.296875 
Q 58.015625 14.40625 51.78125 6.484375 
Q 45.5625 -1.421875 35.59375 -1.421875 
Q 29.59375 -1.421875 25.265625 0.953125 
Q 20.953125 3.328125 18.109375 8.203125 
M 48.6875 27.296875 
Q 48.6875 37.203125 44.609375 42.84375 
Q 40.53125 48.484375 33.40625 48.484375 
Q 26.265625 48.484375 22.1875 42.84375 
Q 18.109375 37.203125 18.109375 27.296875 
Q 18.109375 17.390625 22.1875 11.75 
Q 26.265625 6.109375 33.40625 6.109375 
Q 40.53125 6.109375 44.609375 11.75 
Q 48.6875 17.390625 48.6875 27.296875 
" id="BitstreamVeraSans-Roman-70"/>
     </defs>
     <g transform="translate(35.17875 253.8440625)rotate(-90.0)scale(0.12 -0.12)">
      <use xlink:href="#BitstreamVeraSans-Roman-74"/>
      <use x="39.208984375" xlink:href="#BitstreamVeraSans-Roman-65"/>
      <use x="100.732421875" xlink:href="#BitstreamVeraSans-Roman-6d"/>
      <use x="198.14453125" xlink:href="#BitstreamVeraSans-Roman-70"/>
      <use x="261.62109375" xlink:href="#BitstreamVeraSans-Roman-65"/>
      <use x="323.14453125" xlink:href="#BitstreamVeraSans-Roman-72"/>
      <use x="364.2578125" xlink:href="#BitstreamVeraSans-Roman-61"/>
      <use x="425.537109375" xlink:href="#BitstreamVeraSans-Roman-74"/>
      <use x="464.74609375" xlink:href="#BitstreamVeraSans-Roman-75"/>
      <use x="528.125" xlink:href="#BitstreamVeraSans-Roman-72"/>
      <use x="569.20703125" xlink:href="#BitstreamVeraSans-Roman-65"/>
     </g>
    </g>
   </g>
  </g>
 </g>
 <defs>
  <clipPath id="p68c33e3ca7">
   <rect height="345.6" width="446.4" x="72.0" y="43.2"/>
  </clipPath>
 </defs>
</svg>
